<svg width="89" height="99" viewBox="0 0 89 99" fill="none" xmlns="http://www.w3.org/2000/svg">
<path d="M44.7889 95.983C40.4955 96.0712 36.6215 93.9317 33.1671 89.5642C28.6153 91.018 24.4432 91.7839 20.6506 91.8619C16.5002 91.9472 13.2282 91.227 10.8344 89.7013C8.44208 88.2471 7.22238 86.3751 7.17529 84.0853C7.13851 82.2963 7.85014 80.3488 9.31019 78.2428C10.7702 76.1367 13.0539 74.0495 16.1613 71.9811C17.4331 71.1675 18.8123 70.3516 20.2989 69.5336C21.8569 68.7141 23.5238 67.9639 25.2995 67.2831C25.0378 64.9977 24.8804 62.5669 24.8274 59.9909C24.7068 54.1231 25.2184 47.6697 26.3622 40.6305C27.5046 33.5198 29.4947 25.8548 32.3323 17.6354C27.0915 20.3919 22.2903 23.6405 17.9288 27.3812C13.5657 31.0503 10.2067 34.8061 7.85176 38.6487C7.09111 39.9529 6.13832 40.6168 4.99339 40.6404C4.20626 40.6566 3.80459 40.2711 3.78841 39.4839C3.77664 38.9115 4.08099 38.0462 4.70147 36.888C5.25039 35.7313 6.25855 34.2788 7.72596 32.5305C10.5206 29.18 14.1761 25.9192 18.6926 22.748C23.209 19.5769 28.1636 16.8262 33.5564 14.4961C34.7037 11.1079 36.0314 7.78753 37.5395 4.53506C37.9497 3.59597 38.5841 3.11761 39.4428 3.09995C40.0153 3.08818 40.4848 3.29329 40.8515 3.71528C41.2882 4.06424 41.5124 4.52495 41.5242 5.09741C41.5301 5.38364 41.4659 5.7429 41.3316 6.17519C40.9228 7.18583 40.5141 8.19647 40.1053 9.20711C39.7681 10.2163 39.4309 11.2254 39.0938 12.2346C40.0882 11.8562 41.1192 11.5129 42.1867 11.2046C43.2541 10.8963 44.2858 10.5887 45.2818 10.2819C50.8368 8.87906 55.7968 8.13279 60.1619 8.04303C65.8865 7.92532 70.6292 8.79424 74.3899 10.6498C78.1506 12.5053 80.9601 15.0963 82.8182 18.4228C84.6748 21.6776 85.6465 25.416 85.7333 29.6379C85.8231 34.003 84.9877 38.6376 83.2273 43.5418C81.5384 48.4445 78.9915 53.4006 75.5867 58.4102C72.1804 63.3483 67.9103 68.0535 62.7763 72.5259C57.7139 76.9969 51.8899 80.9824 45.3041 84.4825C41.8331 86.272 38.5344 87.7358 35.4079 88.8739C37.1621 90.6275 38.941 91.8437 40.7446 92.5225C42.5483 93.2013 44.0226 93.5289 45.1675 93.5054C46.1693 93.4848 46.8805 93.2554 47.301 92.8172C47.9303 92.0884 48.6028 91.7166 49.3183 91.7019C49.8192 91.6916 50.2515 91.8259 50.6152 92.1048C50.9789 92.3837 51.1644 92.702 51.1718 93.0598C51.1835 93.6322 50.7294 94.1785 49.8095 94.6985C48.9596 95.1455 48.1068 95.4494 47.2511 95.6102C46.3968 95.8425 45.5761 95.9668 44.7889 95.983ZM34.308 87.6079C35.9421 87.0016 37.6448 86.2507 39.4161 85.3552C41.2604 84.5298 43.1368 83.5248 45.0453 82.3402C53.0357 77.5226 59.619 72.1613 64.7951 66.2563C70.0412 60.2782 73.9264 54.2565 76.4504 48.1912C79.046 42.1244 80.2908 36.5149 80.1849 31.3628C80.0584 25.2088 78.0941 20.2022 74.2922 16.3431C70.4888 12.4123 64.8661 10.5235 57.4241 10.6765C53.8462 10.7501 49.8142 11.3699 45.3281 12.5359C44.1175 12.8472 42.9084 13.23 41.7007 13.6844C40.4916 14.0672 39.2839 14.5215 38.0778 15.0474C33.9482 26.5864 31.1465 36.559 29.6728 44.9651C28.1977 53.2997 27.5562 60.4001 27.7484 66.2663C31.2297 64.9778 34.9667 63.9345 38.9592 63.1365C43.0233 62.3371 47.2378 61.8925 51.6029 61.8027C52.39 61.7865 53.1779 61.8061 53.9665 61.8615C54.8252 61.8438 55.6846 61.862 56.5448 61.9159C57.4765 61.9683 57.946 62.1734 57.9534 62.5312C57.9652 63.1037 56.8977 63.412 54.7509 63.4561C53.8207 63.4752 52.8539 63.4593 51.8506 63.4084C50.9189 63.3559 49.9879 63.3393 49.0577 63.3584C45.0504 63.4408 41.2302 63.9131 37.5969 64.7753C33.9637 65.6374 30.6926 66.7069 27.7837 67.9837C28.097 72.7737 28.8592 76.767 30.0703 79.9635C31.28 83.0885 32.6926 85.6366 34.308 87.6079ZM23.6141 89.7607C26.1186 89.7092 28.9721 89.221 32.1745 88.2961C30.6247 86.0371 29.2443 83.3094 28.0331 80.1128C26.8921 76.8432 26.0284 73.1384 25.4422 68.9983C22.0427 70.7863 19.2895 72.6684 17.1825 74.6446C15.5661 76.1096 14.379 77.5658 13.6213 79.0132C12.8636 80.4605 12.4973 81.7924 12.5223 83.0089C12.5635 85.0125 13.5633 86.6385 15.5219 87.8868C17.4819 89.2067 20.1793 89.8313 23.6141 89.7607Z" fill="#E95B64" stroke="url(#paint0_linear_491_275)" stroke-opacity="0.9" stroke-width="6" stroke-linecap="round"/>
<defs>
<linearGradient id="paint0_linear_491_275" x1="44.112" y1="3.00394" x2="46.0233" y2="95.9576" gradientUnits="userSpaceOnUse">
<stop stop-color="#F0447C"/>
<stop offset="1" stop-color="#4388DD"/>
</linearGradient>
</defs>
</svg>
